# xmcd
# 
# Track frame offsets:
#     150
#     17528
#     34491
#     49949
#     73514
#     94736
#     112460
#     128172
#     145322
#     166746
#     181427
#     206967
#     222357
#     233934
#     250923
#     283491
#     305609
#     324182
# 
# Disc length: 4797
# 
# Revision: 1
# Processed by: cddbd v1.5.2PL0 Copyright (c) Steve Scherf et al.
# Submitted via: BonkEnc v1.0.6
# 
DISCID=1c12bb12
DTITLE=George Russell - The Complete Bluebird Recordings
DYEAR=1956
DGENRE=Jazz
TTITLE0=Ye Hypocrite, Ye Beelzebub
TTITLE1=Jack's Blues
TTITLE2=Livingstone I Presume
TTITLE3=Ezz-thetic
TTITLE4=Concerto For Billy The Kid
TTITLE5=Night Sound
TTITLE6=Round Johnny Rondo
TTITLE7=Witch Hunt
TTITLE8=Concerto For Billy The Kid (alt.take)
TTITLE9=Ballad Of Hix Blewitt
TTITLE10=Fellow Delegates
TTITLE11=The Sad Sergeant
TTITLE12=Knights Of The Steamtable
TTITLE13=Ballad Of Hix Blewitt (alt.take)
TTITLE14=The Day John Brown Was Hanged
TTITLE15=Lydian Lullaby
TTITLE16=Miss Clara
TTITLE17=The Day John Brown Was Hanged (alt.take)
EXTD=
EXTT0=
EXTT1=
EXTT2=
EXTT3=
EXTT4=
EXTT5=
EXTT6=
EXTT7=
EXTT8=
EXTT9=
EXTT10=
EXTT11=
EXTT12=
EXTT13=
EXTT14=
EXTT15=
EXTT16=
EXTT17=
PLAYORDER=
